<svg width="20" height="21" viewBox="0 0 20 21" fill="none" xmlns="http://www.w3.org/2000/svg">
<path d="M19.9813 10.6949C19.9813 10.0033 19.9252 9.30794 19.8056 8.62756H10.2094V12.5453H15.7047C15.4766 13.8089 14.7439 14.9266 13.671 15.6369V18.179H16.9495C18.8748 16.407 19.9813 13.7902 19.9813 10.6949Z" fill="#4285F4"/>
<path d="M10.2093 20.6351C12.9533 20.6351 15.2673 19.7341 16.9533 18.179L13.6747 15.6369C12.7626 16.2575 11.585 16.6089 10.2131 16.6089C7.55886 16.6089 5.30839 14.8182 4.50091 12.4108H1.11774V15.0313C2.84484 18.4668 6.3626 20.6351 10.2093 20.6351Z" fill="#34A853"/>
<path d="M4.4972 12.4108C4.07104 11.1472 4.07104 9.77901 4.4972 8.51546V5.8949H1.11777C-0.325225 8.76966 -0.325225 12.1566 1.11777 15.0313L4.4972 12.4108Z" fill="#FBBC04"/>
<path d="M10.2093 4.3136C11.6598 4.29117 13.0617 4.83696 14.1121 5.83883V5.83883L17.0168 2.93416C15.1775 1.20706 12.7364 0.257522 10.2093 0.287429C6.3626 0.287429 2.84484 2.45565 1.11774 5.89491L4.49718 8.51547C5.30091 6.10425 7.55512 4.3136 10.2093 4.3136Z" fill="#EA4335"/>
</svg>
